<?xml version="1.0" encoding="UTF-8" standalone="no"?>
<!DOCTYPE svg PUBLIC "-//W3C//DTD SVG 1.1//EN"
 "http://www.w3.org/Graphics/SVG/1.1/DTD/svg11.dtd">
<!-- Generated by graphviz version 2.38.0 (20140413.2041)
 -->
<!-- Title: systemd Pages: 1 -->
<svg width="809pt" height="188pt"
 viewBox="0.00 0.00 809.39 188.00" xmlns="http://www.w3.org/2000/svg" xmlns:xlink="http://www.w3.org/1999/xlink">
<g id="graph0" class="graph" transform="scale(1 1) rotate(0) translate(4 184)">
<title>systemd</title>
<polygon fill="white" stroke="none" points="-4,4 -4,-184 805.388,-184 805.388,4 -4,4"/>
<!-- abrtd.service -->
<g id="node1" class="node"><title>abrtd.service</title>
<ellipse fill="none" stroke="black" cx="391.844" cy="-90" rx="55.7903" ry="18"/>
<text text-anchor="middle" x="391.844" y="-86.3" font-family="Times,serif" font-size="14.00">abrtd.service</text>
</g>
<!-- sysinit.target -->
<g id="node2" class="node"><title>sysinit.target</title>
<ellipse fill="none" stroke="black" cx="203.844" cy="-18" rx="55.7903" ry="18"/>
<text text-anchor="middle" x="203.844" y="-14.3" font-family="Times,serif" font-size="14.00">sysinit.target</text>
</g>
<!-- abrtd.service&#45;&gt;sysinit.target -->
<g id="edge1" class="edge"><title>abrtd.service&#45;&gt;sysinit.target</title>
<path fill="none" stroke="black" d="M356.482,-75.8335C325.891,-64.443 281.503,-47.9157 248.472,-35.6169"/>
<polygon fill="black" stroke="black" points="249.639,-32.3169 239.047,-32.1074 247.197,-38.8769 249.639,-32.3169"/>
</g>
<!-- dbus.socket -->
<g id="node3" class="node"><title>dbus.socket</title>
<ellipse fill="none" stroke="black" cx="329.844" cy="-18" rx="51.9908" ry="18"/>
<text text-anchor="middle" x="329.844" y="-14.3" font-family="Times,serif" font-size="14.00">dbus.socket</text>
</g>
<!-- abrtd.service&#45;&gt;dbus.socket -->
<g id="edge2" class="edge"><title>abrtd.service&#45;&gt;dbus.socket</title>
<path fill="none" stroke="black" d="M377.151,-72.411C369.429,-63.6933 359.821,-52.8454 351.285,-43.2077"/>
<polygon fill="black" stroke="black" points="353.682,-40.6352 344.431,-35.4699 348.442,-45.2765 353.682,-40.6352"/>
</g>
<!-- system.slice -->
<g id="node4" class="node"><title>system.slice</title>
<ellipse fill="none" stroke="black" cx="453.844" cy="-18" rx="53.8905" ry="18"/>
<text text-anchor="middle" x="453.844" y="-14.3" font-family="Times,serif" font-size="14.00">system.slice</text>
</g>
<!-- abrtd.service&#45;&gt;system.slice -->
<g id="edge3" class="edge"><title>abrtd.service&#45;&gt;system.slice</title>
<path fill="none" stroke="black" d="M406.537,-72.411C414.258,-63.6933 423.866,-52.8454 432.403,-43.2077"/>
<polygon fill="black" stroke="black" points="435.246,-45.2765 439.256,-35.4699 430.006,-40.6352 435.246,-45.2765"/>
</g>
<!-- shutdown.target -->
<g id="node5" class="node"><title>shutdown.target</title>
<ellipse fill="none" stroke="black" cx="593.844" cy="-18" rx="67.6881" ry="18"/>
<text text-anchor="middle" x="593.844" y="-14.3" font-family="Times,serif" font-size="14.00">shutdown.target</text>
</g>
<!-- abrtd.service&#45;&gt;shutdown.target -->
<g id="edge4" class="edge"><title>abrtd.service&#45;&gt;shutdown.target</title>
<path fill="none" stroke="red" d="M428.424,-76.3235C460.952,-65.0515 508.779,-48.4777 544.651,-36.047"/>
<polygon fill="red" stroke="red" points="546.126,-39.2401 554.429,-32.6587 543.834,-32.626 546.126,-39.2401"/>
</g>
<!-- abrt&#45;xorg.service -->
<g id="node6" class="node"><title>abrt&#45;xorg.service</title>
<ellipse fill="none" stroke="black" cx="70.8437" cy="-162" rx="70.6878" ry="18"/>
<text text-anchor="middle" x="70.8437" y="-158.3" font-family="Times,serif" font-size="14.00">abrt&#45;xorg.service</text>
</g>
<!-- abrt&#45;xorg.service&#45;&gt;abrtd.service -->
<g id="edge5" class="edge"><title>abrt&#45;xorg.service&#45;&gt;abrtd.service</title>
<path fill="none" stroke="darkblue" d="M122.775,-149.675C181.567,-136.855 276.947,-116.055 336.94,-102.973"/>
<polygon fill="darkblue" stroke="darkblue" points="337.958,-106.333 346.983,-100.783 336.467,-99.4938 337.958,-106.333"/>
</g>
<!-- abrt&#45;oops.service -->
<g id="node7" class="node"><title>abrt&#45;oops.service</title>
<ellipse fill="none" stroke="black" cx="230.844" cy="-162" rx="71.4873" ry="18"/>
<text text-anchor="middle" x="230.844" y="-158.3" font-family="Times,serif" font-size="14.00">abrt&#45;oops.service</text>
</g>
<!-- abrt&#45;oops.service&#45;&gt;abrtd.service -->
<g id="edge6" class="edge"><title>abrt&#45;oops.service&#45;&gt;abrtd.service</title>
<path fill="none" stroke="darkblue" d="M264.988,-146.155C289.979,-135.289 324.013,-120.492 350.537,-108.959"/>
<polygon fill="darkblue" stroke="darkblue" points="352.164,-112.069 359.939,-104.872 349.373,-105.649 352.164,-112.069"/>
</g>
<!-- abrt&#45;ccpp.service -->
<g id="node8" class="node"><title>abrt&#45;ccpp.service</title>
<ellipse fill="none" stroke="black" cx="391.844" cy="-162" rx="71.4873" ry="18"/>
<text text-anchor="middle" x="391.844" y="-158.3" font-family="Times,serif" font-size="14.00">abrt&#45;ccpp.service</text>
</g>
<!-- abrt&#45;ccpp.service&#45;&gt;abrtd.service -->
<g id="edge7" class="edge"><title>abrt&#45;ccpp.service&#45;&gt;abrtd.service</title>
<path fill="none" stroke="darkblue" d="M391.844,-143.697C391.844,-135.983 391.844,-126.712 391.844,-118.112"/>
<polygon fill="darkblue" stroke="darkblue" points="395.344,-118.104 391.844,-108.104 388.344,-118.104 395.344,-118.104"/>
</g>
<!-- abrt&#45;vmcore.service -->
<g id="node9" class="node"><title>abrt&#45;vmcore.service</title>
<ellipse fill="none" stroke="black" cx="562.844" cy="-162" rx="81.4863" ry="18"/>
<text text-anchor="middle" x="562.844" y="-158.3" font-family="Times,serif" font-size="14.00">abrt&#45;vmcore.service</text>
</g>
<!-- abrt&#45;vmcore.service&#45;&gt;abrtd.service -->
<g id="edge8" class="edge"><title>abrt&#45;vmcore.service&#45;&gt;abrtd.service</title>
<path fill="none" stroke="darkblue" d="M525.739,-145.811C498.94,-134.84 462.681,-119.998 434.655,-108.525"/>
<polygon fill="darkblue" stroke="darkblue" points="435.694,-105.169 425.114,-104.619 433.042,-111.647 435.694,-105.169"/>
</g>
<!-- multi&#45;user.target -->
<g id="node10" class="node"><title>multi&#45;user.target</title>
<ellipse fill="none" stroke="black" cx="731.844" cy="-162" rx="69.5877" ry="18"/>
<text text-anchor="middle" x="731.844" y="-158.3" font-family="Times,serif" font-size="14.00">multi&#45;user.target</text>
</g>
<!-- multi&#45;user.target&#45;&gt;abrtd.service -->
<g id="edge9" class="edge"><title>multi&#45;user.target&#45;&gt;abrtd.service</title>
<path fill="none" stroke="#a8a8a8" d="M680.442,-149.848C671.256,-147.881 661.77,-145.867 652.844,-144 582.264,-129.24 500.819,-112.795 447.939,-102.195"/>
<polygon fill="#a8a8a8" stroke="#a8a8a8" points="448.573,-98.7528 438.081,-100.22 447.199,-105.616 448.573,-98.7528"/>
</g>
</g>
</svg>
