<?xml version="1.0" encoding="UTF-8" standalone="no"?>
<!DOCTYPE svg PUBLIC "-//W3C//DTD SVG 1.1//EN"
 "http://www.w3.org/Graphics/SVG/1.1/DTD/svg11.dtd">
<!-- Generated by graphviz version 2.38.0 (20140413.2041)
 -->
<!-- Title: systemd Pages: 1 -->
<svg width="809pt" height="188pt"
 viewBox="0.00 0.00 808.74 188.00" xmlns="http://www.w3.org/2000/svg" xmlns:xlink="http://www.w3.org/1999/xlink">
<g id="graph0" class="graph" transform="scale(1 1) rotate(0) translate(4 184)">
<title>systemd</title>
<polygon fill="white" stroke="none" points="-4,4 -4,-184 804.736,-184 804.736,4 -4,4"/>
<!-- abrt&#45;ccpp.service -->
<g id="node1" class="node"><title>abrt&#45;ccpp.service</title>
<ellipse fill="none" stroke="black" cx="71.4937" cy="-162" rx="71.4873" ry="18"/>
<text text-anchor="middle" x="71.4937" y="-158.3" font-family="Times,serif" font-size="14.00">abrt&#45;ccpp.service</text>
</g>
<!-- abrtd.service -->
<g id="node2" class="node"><title>abrtd.service</title>
<ellipse fill="none" stroke="black" cx="391.494" cy="-90" rx="55.7903" ry="18"/>
<text text-anchor="middle" x="391.494" y="-86.3" font-family="Times,serif" font-size="14.00">abrtd.service</text>
</g>
<!-- abrt&#45;ccpp.service&#45;&gt;abrtd.service -->
<g id="edge1" class="edge"><title>abrt&#45;ccpp.service&#45;&gt;abrtd.service</title>
<path fill="none" stroke="darkblue" d="M123.619,-149.597C182.215,-136.78 276.941,-116.058 336.634,-103.001"/>
<polygon fill="darkblue" stroke="darkblue" points="337.607,-106.371 346.628,-100.814 336.111,-99.5323 337.607,-106.371"/>
</g>
<!-- system.slice -->
<g id="node6" class="node"><title>system.slice</title>
<ellipse fill="none" stroke="black" cx="204.494" cy="-18" rx="53.8905" ry="18"/>
<text text-anchor="middle" x="204.494" y="-14.3" font-family="Times,serif" font-size="14.00">system.slice</text>
</g>
<!-- abrtd.service&#45;&gt;system.slice -->
<g id="edge5" class="edge"><title>abrtd.service&#45;&gt;system.slice</title>
<path fill="none" stroke="black" d="M356.32,-75.8335C325.699,-64.3709 281.181,-47.7063 248.262,-35.3839"/>
<polygon fill="black" stroke="black" points="249.47,-32.0989 238.877,-31.8709 247.016,-38.6546 249.47,-32.0989"/>
</g>
<!-- dbus.socket -->
<g id="node7" class="node"><title>dbus.socket</title>
<ellipse fill="none" stroke="black" cx="328.494" cy="-18" rx="51.9908" ry="18"/>
<text text-anchor="middle" x="328.494" y="-14.3" font-family="Times,serif" font-size="14.00">dbus.socket</text>
</g>
<!-- abrtd.service&#45;&gt;dbus.socket -->
<g id="edge6" class="edge"><title>abrtd.service&#45;&gt;dbus.socket</title>
<path fill="none" stroke="black" d="M376.564,-72.411C368.639,-63.6062 358.759,-52.6282 350.021,-42.9189"/>
<polygon fill="black" stroke="black" points="352.608,-40.5615 343.317,-35.4699 347.405,-45.2443 352.608,-40.5615"/>
</g>
<!-- sysinit.target -->
<g id="node8" class="node"><title>sysinit.target</title>
<ellipse fill="none" stroke="black" cx="454.494" cy="-18" rx="55.7903" ry="18"/>
<text text-anchor="middle" x="454.494" y="-14.3" font-family="Times,serif" font-size="14.00">sysinit.target</text>
</g>
<!-- abrtd.service&#45;&gt;sysinit.target -->
<g id="edge7" class="edge"><title>abrtd.service&#45;&gt;sysinit.target</title>
<path fill="none" stroke="black" d="M406.424,-72.411C414.348,-63.6062 424.228,-52.6282 432.967,-42.9189"/>
<polygon fill="black" stroke="black" points="435.583,-45.2443 439.671,-35.4699 430.379,-40.5615 435.583,-45.2443"/>
</g>
<!-- shutdown.target -->
<g id="node9" class="node"><title>shutdown.target</title>
<ellipse fill="none" stroke="black" cx="595.494" cy="-18" rx="67.6881" ry="18"/>
<text text-anchor="middle" x="595.494" y="-14.3" font-family="Times,serif" font-size="14.00">shutdown.target</text>
</g>
<!-- abrtd.service&#45;&gt;shutdown.target -->
<g id="edge8" class="edge"><title>abrtd.service&#45;&gt;shutdown.target</title>
<path fill="none" stroke="red" d="M428.437,-76.3235C461.286,-65.0515 509.587,-48.4777 545.814,-36.047"/>
<polygon fill="red" stroke="red" points="547.366,-39.2149 555.688,-32.6587 545.094,-32.5938 547.366,-39.2149"/>
</g>
<!-- abrt&#45;xorg.service -->
<g id="node3" class="node"><title>abrt&#45;xorg.service</title>
<ellipse fill="none" stroke="black" cx="231.494" cy="-162" rx="70.6878" ry="18"/>
<text text-anchor="middle" x="231.494" y="-158.3" font-family="Times,serif" font-size="14.00">abrt&#45;xorg.service</text>
</g>
<!-- abrt&#45;xorg.service&#45;&gt;abrtd.service -->
<g id="edge2" class="edge"><title>abrt&#45;xorg.service&#45;&gt;abrtd.service</title>
<path fill="none" stroke="darkblue" d="M265.426,-146.155C290.262,-135.289 324.084,-120.492 350.444,-108.959"/>
<polygon fill="darkblue" stroke="darkblue" points="352.029,-112.086 359.787,-104.872 349.223,-105.673 352.029,-112.086"/>
</g>
<!-- abrt&#45;oops.service -->
<g id="node4" class="node"><title>abrt&#45;oops.service</title>
<ellipse fill="none" stroke="black" cx="391.494" cy="-162" rx="71.4873" ry="18"/>
<text text-anchor="middle" x="391.494" y="-158.3" font-family="Times,serif" font-size="14.00">abrt&#45;oops.service</text>
</g>
<!-- abrt&#45;oops.service&#45;&gt;abrtd.service -->
<g id="edge3" class="edge"><title>abrt&#45;oops.service&#45;&gt;abrtd.service</title>
<path fill="none" stroke="darkblue" d="M391.494,-143.697C391.494,-135.983 391.494,-126.712 391.494,-118.112"/>
<polygon fill="darkblue" stroke="darkblue" points="394.994,-118.104 391.494,-108.104 387.994,-118.104 394.994,-118.104"/>
</g>
<!-- multi&#45;user.target -->
<g id="node5" class="node"><title>multi&#45;user.target</title>
<ellipse fill="none" stroke="black" cx="550.494" cy="-162" rx="69.5877" ry="18"/>
<text text-anchor="middle" x="550.494" y="-158.3" font-family="Times,serif" font-size="14.00">multi&#45;user.target</text>
</g>
<!-- multi&#45;user.target&#45;&gt;abrtd.service -->
<g id="edge4" class="edge"><title>multi&#45;user.target&#45;&gt;abrtd.service</title>
<path fill="none" stroke="#a8a8a8" d="M516.774,-146.155C492.093,-135.289 458.482,-120.492 432.287,-108.959"/>
<polygon fill="#a8a8a8" stroke="#a8a8a8" points="433.565,-105.698 423.002,-104.872 430.744,-112.104 433.565,-105.698"/>
</g>
<!-- abrt&#45;vmcore.service -->
<g id="node10" class="node"><title>abrt&#45;vmcore.service</title>
<ellipse fill="none" stroke="black" cx="719.494" cy="-162" rx="81.4863" ry="18"/>
<text text-anchor="middle" x="719.494" y="-158.3" font-family="Times,serif" font-size="14.00">abrt&#45;vmcore.service</text>
</g>
<!-- abrt&#45;vmcore.service&#45;&gt;abrtd.service -->
<g id="edge9" class="edge"><title>abrt&#45;vmcore.service&#45;&gt;abrtd.service</title>
<path fill="none" stroke="darkblue" d="M663.108,-148.967C602.507,-136.033 506.805,-115.609 446.674,-102.776"/>
<polygon fill="darkblue" stroke="darkblue" points="447.119,-99.2925 436.609,-100.628 445.658,-106.138 447.119,-99.2925"/>
</g>
</g>
</svg>
