<?xml version="1.0" encoding="UTF-8" standalone="no"?>
<!DOCTYPE svg PUBLIC "-//W3C//DTD SVG 1.1//EN"
 "http://www.w3.org/Graphics/SVG/1.1/DTD/svg11.dtd">
<!-- Generated by graphviz version 2.38.0 (20140413.2041)
 -->
<!-- Title: systemd Pages: 1 -->
<svg width="722pt" height="116pt"
 viewBox="0.00 0.00 722.49 116.00" xmlns="http://www.w3.org/2000/svg" xmlns:xlink="http://www.w3.org/1999/xlink">
<g id="graph0" class="graph" transform="scale(1 1) rotate(0) translate(4 112)">
<title>systemd</title>
<polygon fill="white" stroke="none" points="-4,4 -4,-112 718.489,-112 718.489,4 -4,4"/>
<!-- rescue.target -->
<g id="node1" class="node"><title>rescue.target</title>
<ellipse fill="none" stroke="black" cx="189.895" cy="-90" rx="55.7903" ry="18"/>
<text text-anchor="middle" x="189.895" y="-86.3" font-family="Times,serif" font-size="14.00">rescue.target</text>
</g>
<!-- sysinit.target -->
<g id="node2" class="node"><title>sysinit.target</title>
<ellipse fill="none" stroke="black" cx="55.895" cy="-18" rx="55.7903" ry="18"/>
<text text-anchor="middle" x="55.895" y="-14.3" font-family="Times,serif" font-size="14.00">sysinit.target</text>
</g>
<!-- rescue.target&#45;&gt;sysinit.target -->
<g id="edge1" class="edge"><title>rescue.target&#45;&gt;sysinit.target</title>
<path fill="none" stroke="green" d="M157.917,-75.1703C137.001,-64.9661 109.874,-50.9165 88.7874,-39.4214"/>
<polygon fill="green" stroke="green" points="90.3108,-36.2647 79.8628,-34.5068 86.9341,-42.3965 90.3108,-36.2647"/>
</g>
<!-- rescue.target&#45;&gt;sysinit.target -->
<g id="edge3" class="edge"><title>rescue.target&#45;&gt;sysinit.target</title>
<path fill="none" stroke="black" d="M166.188,-73.6382C147.022,-62.9559 119.773,-48.665 97.0976,-37.378"/>
<polygon fill="black" stroke="black" points="98.5357,-34.1847 88.0189,-32.901 95.4397,-40.4629 98.5357,-34.1847"/>
</g>
<!-- rescue.service -->
<g id="node3" class="node"><title>rescue.service</title>
<ellipse fill="none" stroke="black" cx="189.895" cy="-18" rx="60.3893" ry="18"/>
<text text-anchor="middle" x="189.895" y="-14.3" font-family="Times,serif" font-size="14.00">rescue.service</text>
</g>
<!-- rescue.target&#45;&gt;rescue.service -->
<g id="edge2" class="edge"><title>rescue.target&#45;&gt;rescue.service</title>
<path fill="none" stroke="green" d="M184.017,-72.055C183.199,-64.3456 182.956,-55.0269 183.29,-46.3642"/>
<polygon fill="green" stroke="green" points="186.789,-46.4915 183.982,-36.2753 179.806,-46.0122 186.789,-46.4915"/>
</g>
<!-- rescue.target&#45;&gt;rescue.service -->
<g id="edge4" class="edge"><title>rescue.target&#45;&gt;rescue.service</title>
<path fill="none" stroke="black" d="M195.773,-72.055C196.591,-64.3456 196.834,-55.0269 196.5,-46.3642"/>
<polygon fill="black" stroke="black" points="199.984,-46.0122 195.808,-36.2753 193.001,-46.4915 199.984,-46.0122"/>
</g>
<!-- systemd&#45;update&#45;utmp&#45;runlevel.service -->
<g id="node4" class="node"><title>systemd&#45;update&#45;utmp&#45;runlevel.service</title>
<ellipse fill="none" stroke="black" cx="414.895" cy="-18" rx="146.774" ry="18"/>
<text text-anchor="middle" x="414.895" y="-14.3" font-family="Times,serif" font-size="14.00">systemd&#45;update&#45;utmp&#45;runlevel.service</text>
</g>
<!-- rescue.target&#45;&gt;systemd&#45;update&#45;utmp&#45;runlevel.service -->
<g id="edge5" class="edge"><title>rescue.target&#45;&gt;systemd&#45;update&#45;utmp&#45;runlevel.service</title>
<path fill="none" stroke="#a8a8a8" d="M228.574,-76.9666C263.048,-66.2412 314.081,-50.3642 354.025,-37.9372"/>
<polygon fill="#a8a8a8" stroke="#a8a8a8" points="355.155,-41.2512 363.664,-34.9385 353.076,-34.5672 355.155,-41.2512"/>
</g>
<!-- shutdown.target -->
<g id="node5" class="node"><title>shutdown.target</title>
<ellipse fill="none" stroke="black" cx="646.895" cy="-18" rx="67.6881" ry="18"/>
<text text-anchor="middle" x="646.895" y="-14.3" font-family="Times,serif" font-size="14.00">shutdown.target</text>
</g>
<!-- rescue.target&#45;&gt;shutdown.target -->
<g id="edge6" class="edge"><title>rescue.target&#45;&gt;shutdown.target</title>
<path fill="none" stroke="red" d="M241.874,-83.1367C315.418,-74.5308 453.924,-57.1814 570.895,-36 576.383,-35.0062 582.076,-33.8913 587.764,-32.7201"/>
<polygon fill="red" stroke="red" points="588.896,-36.0584 597.955,-30.5652 587.448,-29.2098 588.896,-36.0584"/>
</g>
</g>
</svg>
