<?xml version="1.0" encoding="UTF-8" standalone="no"?>
<!DOCTYPE svg PUBLIC "-//W3C//DTD SVG 1.1//EN"
 "http://www.w3.org/Graphics/SVG/1.1/DTD/svg11.dtd">
<!-- Generated by graphviz version 2.38.0 (20140413.2041)
 -->
<!-- Title: systemd Pages: 1 -->
<svg width="723pt" height="116pt"
 viewBox="0.00 0.00 723.04 116.00" xmlns="http://www.w3.org/2000/svg" xmlns:xlink="http://www.w3.org/1999/xlink">
<g id="graph0" class="graph" transform="scale(1 1) rotate(0) translate(4 112)">
<title>systemd</title>
<polygon fill="white" stroke="none" points="-4,4 -4,-112 719.039,-112 719.039,4 -4,4"/>
<!-- rescue.target -->
<g id="node1" class="node"><title>rescue.target</title>
<ellipse fill="none" stroke="black" cx="194.445" cy="-90" rx="55.7903" ry="18"/>
<text text-anchor="middle" x="194.445" y="-86.3" font-family="Times,serif" font-size="14.00">rescue.target</text>
</g>
<!-- rescue.service -->
<g id="node2" class="node"><title>rescue.service</title>
<ellipse fill="none" stroke="black" cx="60.4446" cy="-18" rx="60.3893" ry="18"/>
<text text-anchor="middle" x="60.4446" y="-14.3" font-family="Times,serif" font-size="14.00">rescue.service</text>
</g>
<!-- rescue.target&#45;&gt;rescue.service -->
<g id="edge1" class="edge"><title>rescue.target&#45;&gt;rescue.service</title>
<path fill="none" stroke="green" d="M162.467,-75.1703C141.693,-65.0356 114.792,-51.1074 93.7682,-39.6563"/>
<polygon fill="green" stroke="green" points="95.3084,-36.509 84.8596,-34.7557 91.9344,-42.6423 95.3084,-36.509"/>
</g>
<!-- rescue.target&#45;&gt;rescue.service -->
<g id="edge3" class="edge"><title>rescue.target&#45;&gt;rescue.service</title>
<path fill="none" stroke="black" d="M170.737,-73.6382C151.825,-63.0974 125.043,-49.0429 102.551,-37.828"/>
<polygon fill="black" stroke="black" points="104.046,-34.6629 93.53,-33.3708 100.945,-40.9386 104.046,-34.6629"/>
</g>
<!-- sysinit.target -->
<g id="node3" class="node"><title>sysinit.target</title>
<ellipse fill="none" stroke="black" cx="194.445" cy="-18" rx="55.7903" ry="18"/>
<text text-anchor="middle" x="194.445" y="-14.3" font-family="Times,serif" font-size="14.00">sysinit.target</text>
</g>
<!-- rescue.target&#45;&gt;sysinit.target -->
<g id="edge2" class="edge"><title>rescue.target&#45;&gt;sysinit.target</title>
<path fill="none" stroke="green" d="M188.566,-72.055C187.748,-64.3456 187.506,-55.0269 187.839,-46.3642"/>
<polygon fill="green" stroke="green" points="191.339,-46.4915 188.532,-36.2753 184.355,-46.0122 191.339,-46.4915"/>
</g>
<!-- rescue.target&#45;&gt;sysinit.target -->
<g id="edge4" class="edge"><title>rescue.target&#45;&gt;sysinit.target</title>
<path fill="none" stroke="black" d="M200.323,-72.055C201.141,-64.3456 201.383,-55.0269 201.05,-46.3642"/>
<polygon fill="black" stroke="black" points="204.534,-46.0122 200.357,-36.2753 197.55,-46.4915 204.534,-46.0122"/>
</g>
<!-- systemd&#45;update&#45;utmp&#45;runlevel.service -->
<g id="node4" class="node"><title>systemd&#45;update&#45;utmp&#45;runlevel.service</title>
<ellipse fill="none" stroke="black" cx="415.445" cy="-18" rx="146.774" ry="18"/>
<text text-anchor="middle" x="415.445" y="-14.3" font-family="Times,serif" font-size="14.00">systemd&#45;update&#45;utmp&#45;runlevel.service</text>
</g>
<!-- rescue.target&#45;&gt;systemd&#45;update&#45;utmp&#45;runlevel.service -->
<g id="edge5" class="edge"><title>rescue.target&#45;&gt;systemd&#45;update&#45;utmp&#45;runlevel.service</title>
<path fill="none" stroke="#a8a8a8" d="M232.94,-76.8069C266.686,-66.1182 316.301,-50.403 355.285,-38.0552"/>
<polygon fill="#a8a8a8" stroke="#a8a8a8" points="356.474,-41.3499 364.951,-34.9936 354.36,-34.6766 356.474,-41.3499"/>
</g>
<!-- shutdown.target -->
<g id="node5" class="node"><title>shutdown.target</title>
<ellipse fill="none" stroke="black" cx="647.445" cy="-18" rx="67.6881" ry="18"/>
<text text-anchor="middle" x="647.445" y="-14.3" font-family="Times,serif" font-size="14.00">shutdown.target</text>
</g>
<!-- rescue.target&#45;&gt;shutdown.target -->
<g id="edge6" class="edge"><title>rescue.target&#45;&gt;shutdown.target</title>
<path fill="none" stroke="red" d="M246.183,-83.0628C319.029,-74.4 455.856,-57.0175 571.445,-36 576.932,-35.0023 582.624,-33.8847 588.313,-32.7118"/>
<polygon fill="red" stroke="red" points="589.445,-36.0498 598.503,-30.5547 587.995,-29.2015 589.445,-36.0498"/>
</g>
</g>
</svg>
