<?xml version="1.0" encoding="UTF-8" standalone="no"?>
<!DOCTYPE svg PUBLIC "-//W3C//DTD SVG 1.1//EN"
 "http://www.w3.org/Graphics/SVG/1.1/DTD/svg11.dtd">
<!-- Generated by graphviz version 2.38.0 (20140413.2041)
 -->
<!-- Title: systemd Pages: 1 -->
<svg width="521pt" height="116pt"
 viewBox="0.00 0.00 521.49 116.00" xmlns="http://www.w3.org/2000/svg" xmlns:xlink="http://www.w3.org/1999/xlink">
<g id="graph0" class="graph" transform="scale(1 1) rotate(0) translate(4 112)">
<title>systemd</title>
<polygon fill="white" stroke="none" points="-4,4 -4,-112 517.489,-112 517.489,4 -4,4"/>
<!-- abrtd.service -->
<g id="node1" class="node"><title>abrtd.service</title>
<ellipse fill="none" stroke="black" cx="243.895" cy="-90" rx="55.7903" ry="18"/>
<text text-anchor="middle" x="243.895" y="-86.3" font-family="Times,serif" font-size="14.00">abrtd.service</text>
</g>
<!-- sysinit.target -->
<g id="node2" class="node"><title>sysinit.target</title>
<ellipse fill="none" stroke="black" cx="55.895" cy="-18" rx="55.7903" ry="18"/>
<text text-anchor="middle" x="55.895" y="-14.3" font-family="Times,serif" font-size="14.00">sysinit.target</text>
</g>
<!-- abrtd.service&#45;&gt;sysinit.target -->
<g id="edge1" class="edge"><title>abrtd.service&#45;&gt;sysinit.target</title>
<path fill="none" stroke="black" d="M208.534,-75.8335C177.942,-64.443 133.554,-47.9157 100.523,-35.6169"/>
<polygon fill="black" stroke="black" points="101.691,-32.3169 91.0978,-32.1074 99.248,-38.8769 101.691,-32.3169"/>
</g>
<!-- dbus.socket -->
<g id="node3" class="node"><title>dbus.socket</title>
<ellipse fill="none" stroke="black" cx="181.895" cy="-18" rx="51.9908" ry="18"/>
<text text-anchor="middle" x="181.895" y="-14.3" font-family="Times,serif" font-size="14.00">dbus.socket</text>
</g>
<!-- abrtd.service&#45;&gt;dbus.socket -->
<g id="edge2" class="edge"><title>abrtd.service&#45;&gt;dbus.socket</title>
<path fill="none" stroke="black" d="M229.202,-72.411C221.481,-63.6933 211.872,-52.8454 203.336,-43.2077"/>
<polygon fill="black" stroke="black" points="205.733,-40.6352 196.483,-35.4699 200.493,-45.2765 205.733,-40.6352"/>
</g>
<!-- system.slice -->
<g id="node4" class="node"><title>system.slice</title>
<ellipse fill="none" stroke="black" cx="305.895" cy="-18" rx="53.8905" ry="18"/>
<text text-anchor="middle" x="305.895" y="-14.3" font-family="Times,serif" font-size="14.00">system.slice</text>
</g>
<!-- abrtd.service&#45;&gt;system.slice -->
<g id="edge3" class="edge"><title>abrtd.service&#45;&gt;system.slice</title>
<path fill="none" stroke="black" d="M258.588,-72.411C266.31,-63.6933 275.918,-52.8454 284.454,-43.2077"/>
<polygon fill="black" stroke="black" points="287.297,-45.2765 291.307,-35.4699 282.057,-40.6352 287.297,-45.2765"/>
</g>
<!-- shutdown.target -->
<g id="node5" class="node"><title>shutdown.target</title>
<ellipse fill="none" stroke="black" cx="445.895" cy="-18" rx="67.6881" ry="18"/>
<text text-anchor="middle" x="445.895" y="-14.3" font-family="Times,serif" font-size="14.00">shutdown.target</text>
</g>
<!-- abrtd.service&#45;&gt;shutdown.target -->
<g id="edge4" class="edge"><title>abrtd.service&#45;&gt;shutdown.target</title>
<path fill="none" stroke="red" d="M280.476,-76.3235C313.003,-65.0515 360.831,-48.4777 396.702,-36.047"/>
<polygon fill="red" stroke="red" points="398.177,-39.2401 406.48,-32.6587 395.885,-32.626 398.177,-39.2401"/>
</g>
</g>
</svg>
