<?xml version="1.0" encoding="UTF-8" standalone="no"?>
<!DOCTYPE svg PUBLIC "-//W3C//DTD SVG 1.1//EN"
 "http://www.w3.org/Graphics/SVG/1.1/DTD/svg11.dtd">
<!-- Generated by graphviz version 2.38.0 (20140413.2041)
 -->
<!-- Title: systemd Pages: 1 -->
<svg width="613pt" height="188pt"
 viewBox="0.00 0.00 612.59 188.00" xmlns="http://www.w3.org/2000/svg" xmlns:xlink="http://www.w3.org/1999/xlink">
<g id="graph0" class="graph" transform="scale(1 1) rotate(0) translate(4 184)">
<title>systemd</title>
<polygon fill="white" stroke="none" points="-4,4 -4,-184 608.591,-184 608.591,4 -4,4"/>
<!-- httpd.service -->
<g id="node1" class="node"><title>httpd.service</title>
<ellipse fill="none" stroke="black" cx="271.997" cy="-90" rx="55.7903" ry="18"/>
<text text-anchor="middle" x="271.997" y="-86.3" font-family="Times,serif" font-size="14.00">httpd.service</text>
</g>
<!-- &#45;.mount -->
<g id="node2" class="node"><title>&#45;.mount</title>
<ellipse fill="none" stroke="black" cx="38.9965" cy="-18" rx="38.9931" ry="18"/>
<text text-anchor="middle" x="38.9965" y="-14.3" font-family="Times,serif" font-size="14.00">&#45;.mount</text>
</g>
<!-- httpd.service&#45;&gt;&#45;.mount -->
<g id="edge1" class="edge"><title>httpd.service&#45;&gt;&#45;.mount</title>
<path fill="none" stroke="black" d="M230.264,-77.8313C192.624,-67.5714 135.841,-51.63 86.9965,-36 84.1009,-35.0734 81.1169,-34.089 78.1207,-33.0789"/>
<polygon fill="black" stroke="black" points="79.1968,-29.7479 68.6021,-29.8054 76.9202,-36.3674 79.1968,-29.7479"/>
</g>
<!-- system.slice -->
<g id="node3" class="node"><title>system.slice</title>
<ellipse fill="none" stroke="black" cx="149.997" cy="-18" rx="53.8905" ry="18"/>
<text text-anchor="middle" x="149.997" y="-14.3" font-family="Times,serif" font-size="14.00">system.slice</text>
</g>
<!-- httpd.service&#45;&gt;system.slice -->
<g id="edge2" class="edge"><title>httpd.service&#45;&gt;system.slice</title>
<path fill="none" stroke="black" d="M245.824,-73.9832C228.054,-63.7873 204.354,-50.1888 184.97,-39.0666"/>
<polygon fill="black" stroke="black" points="186.541,-35.9329 176.125,-33.9919 183.057,-42.0045 186.541,-35.9329"/>
</g>
<!-- tmp.mount -->
<g id="node4" class="node"><title>tmp.mount</title>
<ellipse fill="none" stroke="black" cx="271.997" cy="-18" rx="50.0912" ry="18"/>
<text text-anchor="middle" x="271.997" y="-14.3" font-family="Times,serif" font-size="14.00">tmp.mount</text>
</g>
<!-- httpd.service&#45;&gt;tmp.mount -->
<g id="edge3" class="edge"><title>httpd.service&#45;&gt;tmp.mount</title>
<path fill="none" stroke="black" d="M271.997,-71.6966C271.997,-63.9827 271.997,-54.7125 271.997,-46.1124"/>
<polygon fill="black" stroke="black" points="275.497,-46.1043 271.997,-36.1043 268.497,-46.1044 275.497,-46.1043"/>
</g>
<!-- sysinit.target -->
<g id="node5" class="node"><title>sysinit.target</title>
<ellipse fill="none" stroke="black" cx="395.997" cy="-18" rx="55.7903" ry="18"/>
<text text-anchor="middle" x="395.997" y="-14.3" font-family="Times,serif" font-size="14.00">sysinit.target</text>
</g>
<!-- httpd.service&#45;&gt;sysinit.target -->
<g id="edge4" class="edge"><title>httpd.service&#45;&gt;sysinit.target</title>
<path fill="none" stroke="black" d="M298.598,-73.9832C316.741,-63.7411 340.966,-50.0656 360.717,-38.9157"/>
<polygon fill="black" stroke="black" points="362.452,-41.9558 369.439,-33.9919 359.011,-35.86 362.452,-41.9558"/>
</g>
<!-- shutdown.target -->
<g id="node6" class="node"><title>shutdown.target</title>
<ellipse fill="none" stroke="black" cx="536.997" cy="-18" rx="67.6881" ry="18"/>
<text text-anchor="middle" x="536.997" y="-14.3" font-family="Times,serif" font-size="14.00">shutdown.target</text>
</g>
<!-- httpd.service&#45;&gt;shutdown.target -->
<g id="edge5" class="edge"><title>httpd.service&#45;&gt;shutdown.target</title>
<path fill="none" stroke="red" d="M313.694,-77.9855C358.788,-66.074 430.917,-47.0209 480.945,-33.806"/>
<polygon fill="red" stroke="red" points="481.867,-37.1826 490.642,-31.2447 480.079,-30.4147 481.867,-37.1826"/>
</g>
<!-- multi&#45;user.target -->
<g id="node7" class="node"><title>multi&#45;user.target</title>
<ellipse fill="none" stroke="black" cx="271.997" cy="-162" rx="69.5877" ry="18"/>
<text text-anchor="middle" x="271.997" y="-158.3" font-family="Times,serif" font-size="14.00">multi&#45;user.target</text>
</g>
<!-- multi&#45;user.target&#45;&gt;httpd.service -->
<g id="edge6" class="edge"><title>multi&#45;user.target&#45;&gt;httpd.service</title>
<path fill="none" stroke="#a8a8a8" d="M271.997,-143.697C271.997,-135.983 271.997,-126.712 271.997,-118.112"/>
<polygon fill="#a8a8a8" stroke="#a8a8a8" points="275.497,-118.104 271.997,-108.104 268.497,-118.104 275.497,-118.104"/>
</g>
</g>
</svg>
