<?xml version="1.0" encoding="UTF-8" standalone="no"?>
<!DOCTYPE svg PUBLIC "-//W3C//DTD SVG 1.1//EN"
 "http://www.w3.org/Graphics/SVG/1.1/DTD/svg11.dtd">
<!-- Generated by graphviz version 2.38.0 (20140413.2041)
 -->
<!-- Title: systemd Pages: 1 -->
<svg width="614pt" height="188pt"
 viewBox="0.00 0.00 613.59 188.00" xmlns="http://www.w3.org/2000/svg" xmlns:xlink="http://www.w3.org/1999/xlink">
<g id="graph0" class="graph" transform="scale(1 1) rotate(0) translate(4 184)">
<title>systemd</title>
<polygon fill="white" stroke="none" points="-4,4 -4,-184 609.591,-184 609.591,4 -4,4"/>
<!-- multi&#45;user.target -->
<g id="node1" class="node"><title>multi&#45;user.target</title>
<ellipse fill="none" stroke="black" cx="279.997" cy="-162" rx="69.5877" ry="18"/>
<text text-anchor="middle" x="279.997" y="-158.3" font-family="Times,serif" font-size="14.00">multi&#45;user.target</text>
</g>
<!-- httpd.service -->
<g id="node2" class="node"><title>httpd.service</title>
<ellipse fill="none" stroke="black" cx="279.997" cy="-90" rx="55.7903" ry="18"/>
<text text-anchor="middle" x="279.997" y="-86.3" font-family="Times,serif" font-size="14.00">httpd.service</text>
</g>
<!-- multi&#45;user.target&#45;&gt;httpd.service -->
<g id="edge1" class="edge"><title>multi&#45;user.target&#45;&gt;httpd.service</title>
<path fill="none" stroke="#a8a8a8" d="M279.997,-143.697C279.997,-135.983 279.997,-126.712 279.997,-118.112"/>
<polygon fill="#a8a8a8" stroke="#a8a8a8" points="283.497,-118.104 279.997,-108.104 276.497,-118.104 283.497,-118.104"/>
</g>
<!-- &#45;.mount -->
<g id="node3" class="node"><title>&#45;.mount</title>
<ellipse fill="none" stroke="black" cx="38.9965" cy="-18" rx="38.9931" ry="18"/>
<text text-anchor="middle" x="38.9965" y="-14.3" font-family="Times,serif" font-size="14.00">&#45;.mount</text>
</g>
<!-- httpd.service&#45;&gt;&#45;.mount -->
<g id="edge2" class="edge"><title>httpd.service&#45;&gt;&#45;.mount</title>
<path fill="none" stroke="black" d="M237.191,-78.1952C197.909,-68.0551 138.217,-52.0798 86.9965,-36 84.0958,-35.0894 81.1082,-34.1166 78.1094,-33.1148"/>
<polygon fill="black" stroke="black" points="79.1804,-29.7821 68.5858,-29.857 76.9146,-36.4053 79.1804,-29.7821"/>
</g>
<!-- sysinit.target -->
<g id="node4" class="node"><title>sysinit.target</title>
<ellipse fill="none" stroke="black" cx="151.997" cy="-18" rx="55.7903" ry="18"/>
<text text-anchor="middle" x="151.997" y="-14.3" font-family="Times,serif" font-size="14.00">sysinit.target</text>
</g>
<!-- httpd.service&#45;&gt;sysinit.target -->
<g id="edge3" class="edge"><title>httpd.service&#45;&gt;sysinit.target</title>
<path fill="none" stroke="black" d="M252.851,-74.1548C233.929,-63.8069 208.487,-49.8934 187.891,-38.6299"/>
<polygon fill="black" stroke="black" points="189.556,-35.5512 179.103,-33.8238 186.197,-41.6928 189.556,-35.5512"/>
</g>
<!-- system.slice -->
<g id="node5" class="node"><title>system.slice</title>
<ellipse fill="none" stroke="black" cx="279.997" cy="-18" rx="53.8905" ry="18"/>
<text text-anchor="middle" x="279.997" y="-14.3" font-family="Times,serif" font-size="14.00">system.slice</text>
</g>
<!-- httpd.service&#45;&gt;system.slice -->
<g id="edge4" class="edge"><title>httpd.service&#45;&gt;system.slice</title>
<path fill="none" stroke="black" d="M279.997,-71.6966C279.997,-63.9827 279.997,-54.7125 279.997,-46.1124"/>
<polygon fill="black" stroke="black" points="283.497,-46.1043 279.997,-36.1043 276.497,-46.1044 283.497,-46.1043"/>
</g>
<!-- tmp.mount -->
<g id="node6" class="node"><title>tmp.mount</title>
<ellipse fill="none" stroke="black" cx="401.997" cy="-18" rx="50.0912" ry="18"/>
<text text-anchor="middle" x="401.997" y="-14.3" font-family="Times,serif" font-size="14.00">tmp.mount</text>
</g>
<!-- httpd.service&#45;&gt;tmp.mount -->
<g id="edge5" class="edge"><title>httpd.service&#45;&gt;tmp.mount</title>
<path fill="none" stroke="black" d="M306.169,-73.9832C324.06,-63.7179 347.962,-50.0036 367.418,-38.8399"/>
<polygon fill="black" stroke="black" points="369.355,-41.7642 376.287,-33.7517 365.871,-35.6926 369.355,-41.7642"/>
</g>
<!-- shutdown.target -->
<g id="node7" class="node"><title>shutdown.target</title>
<ellipse fill="none" stroke="black" cx="537.997" cy="-18" rx="67.6881" ry="18"/>
<text text-anchor="middle" x="537.997" y="-14.3" font-family="Times,serif" font-size="14.00">shutdown.target</text>
</g>
<!-- httpd.service&#45;&gt;shutdown.target -->
<g id="edge6" class="edge"><title>httpd.service&#45;&gt;shutdown.target</title>
<path fill="none" stroke="red" d="M321.449,-77.7533C365.159,-65.894 434.259,-47.1458 482.615,-34.0261"/>
<polygon fill="red" stroke="red" points="483.564,-37.3952 492.298,-31.3987 481.731,-30.6394 483.564,-37.3952"/>
</g>
</g>
</svg>
