<?xml version="1.0" encoding="UTF-8" standalone="no"?>
<!DOCTYPE svg PUBLIC "-//W3C//DTD SVG 1.1//EN"
 "http://www.w3.org/Graphics/SVG/1.1/DTD/svg11.dtd">
<!-- Generated by graphviz version 2.38.0 (20140413.2041)
 -->
<!-- Title: systemd Pages: 1 -->
<svg width="613pt" height="188pt"
 viewBox="0.00 0.00 613.49 188.00" xmlns="http://www.w3.org/2000/svg" xmlns:xlink="http://www.w3.org/1999/xlink">
<g id="graph0" class="graph" transform="scale(1 1) rotate(0) translate(4 184)">
<title>systemd</title>
<polygon fill="white" stroke="none" points="-4,4 -4,-184 609.489,-184 609.489,4 -4,4"/>
<!-- multi&#45;user.target -->
<g id="node1" class="node"><title>multi&#45;user.target</title>
<ellipse fill="none" stroke="black" cx="301.895" cy="-162" rx="69.5877" ry="18"/>
<text text-anchor="middle" x="301.895" y="-158.3" font-family="Times,serif" font-size="14.00">multi&#45;user.target</text>
</g>
<!-- httpd.service -->
<g id="node2" class="node"><title>httpd.service</title>
<ellipse fill="none" stroke="black" cx="301.895" cy="-90" rx="55.7903" ry="18"/>
<text text-anchor="middle" x="301.895" y="-86.3" font-family="Times,serif" font-size="14.00">httpd.service</text>
</g>
<!-- multi&#45;user.target&#45;&gt;httpd.service -->
<g id="edge1" class="edge"><title>multi&#45;user.target&#45;&gt;httpd.service</title>
<path fill="none" stroke="#a8a8a8" d="M301.895,-143.697C301.895,-135.983 301.895,-126.712 301.895,-118.112"/>
<polygon fill="#a8a8a8" stroke="#a8a8a8" points="305.395,-118.104 301.895,-108.104 298.395,-118.104 305.395,-118.104"/>
</g>
<!-- sysinit.target -->
<g id="node3" class="node"><title>sysinit.target</title>
<ellipse fill="none" stroke="black" cx="55.895" cy="-18" rx="55.7903" ry="18"/>
<text text-anchor="middle" x="55.895" y="-14.3" font-family="Times,serif" font-size="14.00">sysinit.target</text>
</g>
<!-- httpd.service&#45;&gt;sysinit.target -->
<g id="edge2" class="edge"><title>httpd.service&#45;&gt;sysinit.target</title>
<path fill="none" stroke="black" d="M261.549,-77.5193C219.007,-65.414 151.914,-46.3224 106.008,-33.2598"/>
<polygon fill="black" stroke="black" points="106.84,-29.8575 96.2635,-30.487 104.924,-36.5903 106.84,-29.8575"/>
</g>
<!-- tmp.mount -->
<g id="node4" class="node"><title>tmp.mount</title>
<ellipse fill="none" stroke="black" cx="179.895" cy="-18" rx="50.0912" ry="18"/>
<text text-anchor="middle" x="179.895" y="-14.3" font-family="Times,serif" font-size="14.00">tmp.mount</text>
</g>
<!-- httpd.service&#45;&gt;tmp.mount -->
<g id="edge3" class="edge"><title>httpd.service&#45;&gt;tmp.mount</title>
<path fill="none" stroke="black" d="M275.723,-73.9832C257.832,-63.7179 233.93,-50.0036 214.473,-38.8399"/>
<polygon fill="black" stroke="black" points="216.021,-35.6926 205.605,-33.7517 212.537,-41.7642 216.021,-35.6926"/>
</g>
<!-- system.slice -->
<g id="node5" class="node"><title>system.slice</title>
<ellipse fill="none" stroke="black" cx="301.895" cy="-18" rx="53.8905" ry="18"/>
<text text-anchor="middle" x="301.895" y="-14.3" font-family="Times,serif" font-size="14.00">system.slice</text>
</g>
<!-- httpd.service&#45;&gt;system.slice -->
<g id="edge4" class="edge"><title>httpd.service&#45;&gt;system.slice</title>
<path fill="none" stroke="black" d="M301.895,-71.6966C301.895,-63.9827 301.895,-54.7125 301.895,-46.1124"/>
<polygon fill="black" stroke="black" points="305.395,-46.1043 301.895,-36.1043 298.395,-46.1044 305.395,-46.1043"/>
</g>
<!-- &#45;.mount -->
<g id="node6" class="node"><title>&#45;.mount</title>
<ellipse fill="none" stroke="black" cx="412.895" cy="-18" rx="38.9931" ry="18"/>
<text text-anchor="middle" x="412.895" y="-14.3" font-family="Times,serif" font-size="14.00">&#45;.mount</text>
</g>
<!-- httpd.service&#45;&gt;&#45;.mount -->
<g id="edge5" class="edge"><title>httpd.service&#45;&gt;&#45;.mount</title>
<path fill="none" stroke="black" d="M326.254,-73.6382C342.667,-63.2882 364.45,-49.5507 382.069,-38.4399"/>
<polygon fill="black" stroke="black" points="384.26,-41.1957 390.852,-32.901 380.527,-35.2748 384.26,-41.1957"/>
</g>
<!-- shutdown.target -->
<g id="node7" class="node"><title>shutdown.target</title>
<ellipse fill="none" stroke="black" cx="537.895" cy="-18" rx="67.6881" ry="18"/>
<text text-anchor="middle" x="537.895" y="-14.3" font-family="Times,serif" font-size="14.00">shutdown.target</text>
</g>
<!-- httpd.service&#45;&gt;shutdown.target -->
<g id="edge6" class="edge"><title>httpd.service&#45;&gt;shutdown.target</title>
<path fill="none" stroke="red" d="M341.662,-77.2046C380.905,-65.5649 441.157,-47.6936 484.543,-34.8248"/>
<polygon fill="red" stroke="red" points="485.765,-38.1132 494.357,-31.914 483.774,-31.4022 485.765,-38.1132"/>
</g>
</g>
</svg>
