<?xml version="1.0" encoding="UTF-8" standalone="no"?>
<!DOCTYPE svg PUBLIC "-//W3C//DTD SVG 1.1//EN"
 "http://www.w3.org/Graphics/SVG/1.1/DTD/svg11.dtd">
<!-- Generated by graphviz version 2.38.0 (20140413.2041)
 -->
<!-- Title: systemd Pages: 1 -->
<svg width="571pt" height="188pt"
 viewBox="0.00 0.00 571.49 188.00" xmlns="http://www.w3.org/2000/svg" xmlns:xlink="http://www.w3.org/1999/xlink">
<g id="graph0" class="graph" transform="scale(1 1) rotate(0) translate(4 184)">
<title>systemd</title>
<polygon fill="white" stroke="none" points="-4,4 -4,-184 567.489,-184 567.489,4 -4,4"/>
<!-- multi&#45;user.target -->
<g id="node1" class="node"><title>multi&#45;user.target</title>
<ellipse fill="none" stroke="black" cx="257.895" cy="-162" rx="69.5877" ry="18"/>
<text text-anchor="middle" x="257.895" y="-158.3" font-family="Times,serif" font-size="14.00">multi&#45;user.target</text>
</g>
<!-- sshd.service -->
<g id="node2" class="node"><title>sshd.service</title>
<ellipse fill="none" stroke="black" cx="257.895" cy="-90" rx="53.8905" ry="18"/>
<text text-anchor="middle" x="257.895" y="-86.3" font-family="Times,serif" font-size="14.00">sshd.service</text>
</g>
<!-- multi&#45;user.target&#45;&gt;sshd.service -->
<g id="edge1" class="edge"><title>multi&#45;user.target&#45;&gt;sshd.service</title>
<path fill="none" stroke="#a8a8a8" d="M257.895,-143.697C257.895,-135.983 257.895,-126.712 257.895,-118.112"/>
<polygon fill="#a8a8a8" stroke="#a8a8a8" points="261.395,-118.104 257.895,-108.104 254.395,-118.104 261.395,-118.104"/>
</g>
<!-- sysinit.target -->
<g id="node3" class="node"><title>sysinit.target</title>
<ellipse fill="none" stroke="black" cx="55.895" cy="-18" rx="55.7903" ry="18"/>
<text text-anchor="middle" x="55.895" y="-14.3" font-family="Times,serif" font-size="14.00">sysinit.target</text>
</g>
<!-- sshd.service&#45;&gt;sysinit.target -->
<g id="edge2" class="edge"><title>sshd.service&#45;&gt;sysinit.target</title>
<path fill="none" stroke="black" d="M221.781,-76.4854C188.381,-64.9109 138.562,-47.647 102.239,-35.0599"/>
<polygon fill="black" stroke="black" points="102.972,-31.6096 92.377,-31.6423 100.68,-38.2237 102.972,-31.6096"/>
</g>
<!-- system.slice -->
<g id="node4" class="node"><title>system.slice</title>
<ellipse fill="none" stroke="black" cx="183.895" cy="-18" rx="53.8905" ry="18"/>
<text text-anchor="middle" x="183.895" y="-14.3" font-family="Times,serif" font-size="14.00">system.slice</text>
</g>
<!-- sshd.service&#45;&gt;system.slice -->
<g id="edge3" class="edge"><title>sshd.service&#45;&gt;system.slice</title>
<path fill="none" stroke="black" d="M240.732,-72.7646C231.112,-63.6647 218.952,-52.162 208.351,-42.1336"/>
<polygon fill="black" stroke="black" points="210.635,-39.4767 200.965,-35.1473 205.825,-44.562 210.635,-39.4767"/>
</g>
<!-- sshd&#45;keygen.target -->
<g id="node5" class="node"><title>sshd&#45;keygen.target</title>
<ellipse fill="none" stroke="black" cx="332.895" cy="-18" rx="77.1866" ry="18"/>
<text text-anchor="middle" x="332.895" y="-14.3" font-family="Times,serif" font-size="14.00">sshd&#45;keygen.target</text>
</g>
<!-- sshd.service&#45;&gt;sshd&#45;keygen.target -->
<g id="edge4" class="edge"><title>sshd.service&#45;&gt;sshd&#45;keygen.target</title>
<path fill="none" stroke="#a8a8a8" d="M275.29,-72.7646C284.901,-63.7947 297.013,-52.4902 307.648,-42.5643"/>
<polygon fill="#a8a8a8" stroke="#a8a8a8" points="310.151,-45.0153 315.074,-35.6334 305.375,-39.8979 310.151,-45.0153"/>
</g>
<!-- shutdown.target -->
<g id="node6" class="node"><title>shutdown.target</title>
<ellipse fill="none" stroke="black" cx="495.895" cy="-18" rx="67.6881" ry="18"/>
<text text-anchor="middle" x="495.895" y="-14.3" font-family="Times,serif" font-size="14.00">shutdown.target</text>
</g>
<!-- sshd.service&#45;&gt;shutdown.target -->
<g id="edge5" class="edge"><title>sshd.service&#45;&gt;shutdown.target</title>
<path fill="none" stroke="red" d="M296.929,-77.5193C336.653,-65.836 398.502,-47.6451 442.694,-34.6475"/>
<polygon fill="red" stroke="red" points="443.794,-37.9722 452.4,-31.7926 441.819,-31.2566 443.794,-37.9722"/>
</g>
</g>
</svg>
