<?xml version="1.0" encoding="UTF-8" standalone="no"?>
<!DOCTYPE svg PUBLIC "-//W3C//DTD SVG 1.1//EN"
 "http://www.w3.org/Graphics/SVG/1.1/DTD/svg11.dtd">
<!-- Generated by graphviz version 2.38.0 (20140413.2041)
 -->
<!-- Title: systemd Pages: 1 -->
<svg width="809pt" height="116pt"
 viewBox="0.00 0.00 809.39 116.00" xmlns="http://www.w3.org/2000/svg" xmlns:xlink="http://www.w3.org/1999/xlink">
<g id="graph0" class="graph" transform="scale(1 1) rotate(0) translate(4 112)">
<title>systemd</title>
<polygon fill="white" stroke="none" points="-4,4 -4,-112 805.388,-112 805.388,4 -4,4"/>
<!-- abrt&#45;xorg.service -->
<g id="node1" class="node"><title>abrt&#45;xorg.service</title>
<ellipse fill="none" stroke="black" cx="70.8437" cy="-90" rx="70.6878" ry="18"/>
<text text-anchor="middle" x="70.8437" y="-86.3" font-family="Times,serif" font-size="14.00">abrt&#45;xorg.service</text>
</g>
<!-- abrtd.service -->
<g id="node2" class="node"><title>abrtd.service</title>
<ellipse fill="none" stroke="black" cx="391.844" cy="-18" rx="55.7903" ry="18"/>
<text text-anchor="middle" x="391.844" y="-14.3" font-family="Times,serif" font-size="14.00">abrtd.service</text>
</g>
<!-- abrt&#45;xorg.service&#45;&gt;abrtd.service -->
<g id="edge1" class="edge"><title>abrt&#45;xorg.service&#45;&gt;abrtd.service</title>
<path fill="none" stroke="darkblue" d="M122.775,-77.6755C181.567,-64.8548 276.947,-44.0553 336.94,-30.9728"/>
<polygon fill="darkblue" stroke="darkblue" points="337.958,-34.3331 346.983,-28.7828 336.467,-27.4938 337.958,-34.3331"/>
</g>
<!-- abrt&#45;oops.service -->
<g id="node3" class="node"><title>abrt&#45;oops.service</title>
<ellipse fill="none" stroke="black" cx="230.844" cy="-90" rx="71.4873" ry="18"/>
<text text-anchor="middle" x="230.844" y="-86.3" font-family="Times,serif" font-size="14.00">abrt&#45;oops.service</text>
</g>
<!-- abrt&#45;oops.service&#45;&gt;abrtd.service -->
<g id="edge2" class="edge"><title>abrt&#45;oops.service&#45;&gt;abrtd.service</title>
<path fill="none" stroke="darkblue" d="M264.988,-74.1548C289.979,-63.2889 324.013,-48.4916 350.537,-36.9593"/>
<polygon fill="darkblue" stroke="darkblue" points="352.164,-40.0686 359.939,-32.8716 349.373,-33.6491 352.164,-40.0686"/>
</g>
<!-- abrt&#45;ccpp.service -->
<g id="node4" class="node"><title>abrt&#45;ccpp.service</title>
<ellipse fill="none" stroke="black" cx="391.844" cy="-90" rx="71.4873" ry="18"/>
<text text-anchor="middle" x="391.844" y="-86.3" font-family="Times,serif" font-size="14.00">abrt&#45;ccpp.service</text>
</g>
<!-- abrt&#45;ccpp.service&#45;&gt;abrtd.service -->
<g id="edge3" class="edge"><title>abrt&#45;ccpp.service&#45;&gt;abrtd.service</title>
<path fill="none" stroke="darkblue" d="M391.844,-71.6966C391.844,-63.9827 391.844,-54.7125 391.844,-46.1124"/>
<polygon fill="darkblue" stroke="darkblue" points="395.344,-46.1043 391.844,-36.1043 388.344,-46.1044 395.344,-46.1043"/>
</g>
<!-- abrt&#45;vmcore.service -->
<g id="node5" class="node"><title>abrt&#45;vmcore.service</title>
<ellipse fill="none" stroke="black" cx="562.844" cy="-90" rx="81.4863" ry="18"/>
<text text-anchor="middle" x="562.844" y="-86.3" font-family="Times,serif" font-size="14.00">abrt&#45;vmcore.service</text>
</g>
<!-- abrt&#45;vmcore.service&#45;&gt;abrtd.service -->
<g id="edge4" class="edge"><title>abrt&#45;vmcore.service&#45;&gt;abrtd.service</title>
<path fill="none" stroke="darkblue" d="M525.739,-73.811C498.94,-62.8404 462.681,-47.9978 434.655,-36.525"/>
<polygon fill="darkblue" stroke="darkblue" points="435.694,-33.1687 425.114,-32.6193 433.042,-39.6469 435.694,-33.1687"/>
</g>
<!-- multi&#45;user.target -->
<g id="node6" class="node"><title>multi&#45;user.target</title>
<ellipse fill="none" stroke="black" cx="731.844" cy="-90" rx="69.5877" ry="18"/>
<text text-anchor="middle" x="731.844" y="-86.3" font-family="Times,serif" font-size="14.00">multi&#45;user.target</text>
</g>
<!-- multi&#45;user.target&#45;&gt;abrtd.service -->
<g id="edge5" class="edge"><title>multi&#45;user.target&#45;&gt;abrtd.service</title>
<path fill="none" stroke="#a8a8a8" d="M680.442,-77.8485C671.256,-75.8813 661.77,-73.8666 652.844,-72 582.264,-57.2403 500.819,-40.795 447.939,-30.1951"/>
<polygon fill="#a8a8a8" stroke="#a8a8a8" points="448.573,-26.7528 438.081,-28.2205 447.199,-33.6165 448.573,-26.7528"/>
</g>
</g>
</svg>
