<?xml version="1.0" encoding="UTF-8" standalone="no"?>
<!DOCTYPE svg PUBLIC "-//W3C//DTD SVG 1.1//EN"
 "http://www.w3.org/Graphics/SVG/1.1/DTD/svg11.dtd">
<!-- Generated by graphviz version 2.38.0 (20140413.2041)
 -->
<!-- Title: systemd Pages: 1 -->
<svg width="608pt" height="116pt"
 viewBox="0.00 0.00 608.19 116.00" xmlns="http://www.w3.org/2000/svg" xmlns:xlink="http://www.w3.org/1999/xlink">
<g id="graph0" class="graph" transform="scale(1 1) rotate(0) translate(4 112)">
<title>systemd</title>
<polygon fill="white" stroke="none" points="-4,4 -4,-112 604.188,-112 604.188,4 -4,4"/>
<!-- graphical.target -->
<g id="node1" class="node"><title>graphical.target</title>
<ellipse fill="none" stroke="black" cx="65.6442" cy="-90" rx="65.7887" ry="18"/>
<text text-anchor="middle" x="65.6442" y="-86.3" font-family="Times,serif" font-size="14.00">graphical.target</text>
</g>
<!-- rescue.target -->
<g id="node2" class="node"><title>rescue.target</title>
<ellipse fill="none" stroke="black" cx="296.644" cy="-18" rx="55.7903" ry="18"/>
<text text-anchor="middle" x="296.644" y="-14.3" font-family="Times,serif" font-size="14.00">rescue.target</text>
</g>
<!-- graphical.target&#45;&gt;rescue.target -->
<g id="edge1" class="edge"><title>graphical.target&#45;&gt;rescue.target</title>
<path fill="none" stroke="green" d="M104.725,-75.5033C143.404,-63.2665 202.66,-45.3042 245.146,-32.9334"/>
<polygon fill="green" stroke="green" points="246.121,-36.295 254.751,-30.1497 244.172,-29.5717 246.121,-36.295"/>
</g>
<!-- graphical.target&#45;&gt;rescue.target -->
<g id="edge2" class="edge"><title>graphical.target&#45;&gt;rescue.target</title>
<path fill="none" stroke="red" d="M110.872,-76.8868C151.22,-65.2104 209.886,-47.4822 250.503,-34.7222"/>
<polygon fill="red" stroke="red" points="251.679,-38.0214 260.161,-31.6735 249.572,-31.346 251.679,-38.0214"/>
</g>
<!-- systemd&#45;update&#45;utmp&#45;runlevel.service -->
<g id="node3" class="node"><title>systemd&#45;update&#45;utmp&#45;runlevel.service</title>
<ellipse fill="none" stroke="black" cx="296.644" cy="-90" rx="146.774" ry="18"/>
<text text-anchor="middle" x="296.644" y="-86.3" font-family="Times,serif" font-size="14.00">systemd&#45;update&#45;utmp&#45;runlevel.service</text>
</g>
<!-- systemd&#45;update&#45;utmp&#45;runlevel.service&#45;&gt;rescue.target -->
<g id="edge3" class="edge"><title>systemd&#45;update&#45;utmp&#45;runlevel.service&#45;&gt;rescue.target</title>
<path fill="none" stroke="green" d="M296.644,-71.6966C296.644,-63.9827 296.644,-54.7125 296.644,-46.1124"/>
<polygon fill="green" stroke="green" points="300.144,-46.1043 296.644,-36.1043 293.144,-46.1044 300.144,-46.1043"/>
</g>
<!-- multi&#45;user.target -->
<g id="node4" class="node"><title>multi&#45;user.target</title>
<ellipse fill="none" stroke="black" cx="530.644" cy="-90" rx="69.5877" ry="18"/>
<text text-anchor="middle" x="530.644" y="-86.3" font-family="Times,serif" font-size="14.00">multi&#45;user.target</text>
</g>
<!-- multi&#45;user.target&#45;&gt;rescue.target -->
<g id="edge4" class="edge"><title>multi&#45;user.target&#45;&gt;rescue.target</title>
<path fill="none" stroke="green" d="M483.776,-76.5661C442.937,-64.8791 384.163,-47.3403 343.37,-34.6945"/>
<polygon fill="green" stroke="green" points="344.255,-31.3044 333.667,-31.6724 342.173,-37.9878 344.255,-31.3044"/>
</g>
<!-- multi&#45;user.target&#45;&gt;rescue.target -->
<g id="edge5" class="edge"><title>multi&#45;user.target&#45;&gt;rescue.target</title>
<path fill="none" stroke="red" d="M490.185,-75.2538C450.862,-62.9901 391.141,-45.1235 348.391,-32.8334"/>
<polygon fill="red" stroke="red" points="349.305,-29.4545 338.728,-30.0682 347.379,-36.1843 349.305,-29.4545"/>
</g>
</g>
</svg>
