<?xml version="1.0" encoding="UTF-8" standalone="no"?>
<!DOCTYPE svg PUBLIC "-//W3C//DTD SVG 1.1//EN"
 "http://www.w3.org/Graphics/SVG/1.1/DTD/svg11.dtd">
<!-- Generated by graphviz version 2.38.0 (20140413.2041)
 -->
<!-- Title: systemd Pages: 1 -->
<svg width="296pt" height="116pt"
 viewBox="0.00 0.00 296.19 116.00" xmlns="http://www.w3.org/2000/svg" xmlns:xlink="http://www.w3.org/1999/xlink">
<g id="graph0" class="graph" transform="scale(1 1) rotate(0) translate(4 112)">
<title>systemd</title>
<polygon fill="white" stroke="none" points="-4,4 -4,-112 292.188,-112 292.188,4 -4,4"/>
<!-- graphical.target -->
<g id="node1" class="node"><title>graphical.target</title>
<ellipse fill="none" stroke="black" cx="65.6442" cy="-90" rx="65.7887" ry="18"/>
<text text-anchor="middle" x="65.6442" y="-86.3" font-family="Times,serif" font-size="14.00">graphical.target</text>
</g>
<!-- rescue.target -->
<g id="node2" class="node"><title>rescue.target</title>
<ellipse fill="none" stroke="black" cx="141.644" cy="-18" rx="55.7903" ry="18"/>
<text text-anchor="middle" x="141.644" y="-14.3" font-family="Times,serif" font-size="14.00">rescue.target</text>
</g>
<!-- graphical.target&#45;&gt;rescue.target -->
<g id="edge1" class="edge"><title>graphical.target&#45;&gt;rescue.target</title>
<path fill="none" stroke="red" d="M83.6551,-72.411C93.4746,-63.3668 105.783,-52.0296 116.532,-42.1298"/>
<polygon fill="red" stroke="red" points="119.04,-44.5777 124.025,-35.2285 114.298,-39.4288 119.04,-44.5777"/>
</g>
<!-- multi&#45;user.target -->
<g id="node3" class="node"><title>multi&#45;user.target</title>
<ellipse fill="none" stroke="black" cx="218.644" cy="-90" rx="69.5877" ry="18"/>
<text text-anchor="middle" x="218.644" y="-86.3" font-family="Times,serif" font-size="14.00">multi&#45;user.target</text>
</g>
<!-- multi&#45;user.target&#45;&gt;rescue.target -->
<g id="edge2" class="edge"><title>multi&#45;user.target&#45;&gt;rescue.target</title>
<path fill="none" stroke="red" d="M200.396,-72.411C190.448,-63.3668 177.977,-52.0296 167.087,-42.1298"/>
<polygon fill="red" stroke="red" points="169.249,-39.3654 159.495,-35.2285 164.541,-44.545 169.249,-39.3654"/>
</g>
</g>
</svg>
