<?xml version="1.0" encoding="UTF-8" standalone="no"?>
<!DOCTYPE svg PUBLIC "-//W3C//DTD SVG 1.1//EN"
 "http://www.w3.org/Graphics/SVG/1.1/DTD/svg11.dtd">
<!-- Generated by graphviz version 2.38.0 (20140413.2041)
 -->
<!-- Title: systemd Pages: 1 -->
<svg width="608pt" height="116pt"
 viewBox="0.00 0.00 608.19 116.00" xmlns="http://www.w3.org/2000/svg" xmlns:xlink="http://www.w3.org/1999/xlink">
<g id="graph0" class="graph" transform="scale(1 1) rotate(0) translate(4 112)">
<title>systemd</title>
<polygon fill="white" stroke="none" points="-4,4 -4,-112 604.188,-112 604.188,4 -4,4"/>
<!-- multi&#45;user.target -->
<g id="node1" class="node"><title>multi&#45;user.target</title>
<ellipse fill="none" stroke="black" cx="69.5438" cy="-90" rx="69.5877" ry="18"/>
<text text-anchor="middle" x="69.5438" y="-86.3" font-family="Times,serif" font-size="14.00">multi&#45;user.target</text>
</g>
<!-- rescue.target -->
<g id="node2" class="node"><title>rescue.target</title>
<ellipse fill="none" stroke="black" cx="303.544" cy="-18" rx="55.7903" ry="18"/>
<text text-anchor="middle" x="303.544" y="-14.3" font-family="Times,serif" font-size="14.00">rescue.target</text>
</g>
<!-- multi&#45;user.target&#45;&gt;rescue.target -->
<g id="edge1" class="edge"><title>multi&#45;user.target&#45;&gt;rescue.target</title>
<path fill="none" stroke="green" d="M110.003,-75.2538C149.326,-62.9901 209.047,-45.1235 251.797,-32.8334"/>
<polygon fill="green" stroke="green" points="252.809,-36.1843 261.46,-30.0682 250.883,-29.4545 252.809,-36.1843"/>
</g>
<!-- multi&#45;user.target&#45;&gt;rescue.target -->
<g id="edge2" class="edge"><title>multi&#45;user.target&#45;&gt;rescue.target</title>
<path fill="none" stroke="red" d="M116.412,-76.5661C157.251,-64.8791 216.025,-47.3403 256.818,-34.6945"/>
<polygon fill="red" stroke="red" points="258.015,-37.9878 266.521,-31.6724 255.933,-31.3044 258.015,-37.9878"/>
</g>
<!-- systemd&#45;update&#45;utmp&#45;runlevel.service -->
<g id="node3" class="node"><title>systemd&#45;update&#45;utmp&#45;runlevel.service</title>
<ellipse fill="none" stroke="black" cx="303.544" cy="-90" rx="146.774" ry="18"/>
<text text-anchor="middle" x="303.544" y="-86.3" font-family="Times,serif" font-size="14.00">systemd&#45;update&#45;utmp&#45;runlevel.service</text>
</g>
<!-- systemd&#45;update&#45;utmp&#45;runlevel.service&#45;&gt;rescue.target -->
<g id="edge3" class="edge"><title>systemd&#45;update&#45;utmp&#45;runlevel.service&#45;&gt;rescue.target</title>
<path fill="none" stroke="green" d="M303.544,-71.6966C303.544,-63.9827 303.544,-54.7125 303.544,-46.1124"/>
<polygon fill="green" stroke="green" points="307.044,-46.1043 303.544,-36.1043 300.044,-46.1044 307.044,-46.1043"/>
</g>
<!-- graphical.target -->
<g id="node4" class="node"><title>graphical.target</title>
<ellipse fill="none" stroke="black" cx="534.544" cy="-90" rx="65.7887" ry="18"/>
<text text-anchor="middle" x="534.544" y="-86.3" font-family="Times,serif" font-size="14.00">graphical.target</text>
</g>
<!-- graphical.target&#45;&gt;rescue.target -->
<g id="edge4" class="edge"><title>graphical.target&#45;&gt;rescue.target</title>
<path fill="none" stroke="green" d="M489.316,-76.8868C448.968,-65.2104 390.302,-47.4822 349.685,-34.7222"/>
<polygon fill="green" stroke="green" points="350.616,-31.346 340.027,-31.6735 348.509,-38.0214 350.616,-31.346"/>
</g>
<!-- graphical.target&#45;&gt;rescue.target -->
<g id="edge5" class="edge"><title>graphical.target&#45;&gt;rescue.target</title>
<path fill="none" stroke="red" d="M495.463,-75.5033C456.784,-63.2665 397.528,-45.3042 355.042,-32.9334"/>
<polygon fill="red" stroke="red" points="356.016,-29.5717 345.437,-30.1497 354.067,-36.295 356.016,-29.5717"/>
</g>
</g>
</svg>
