<?xml version="1.0" encoding="UTF-8" standalone="no"?>
<!DOCTYPE svg PUBLIC "-//W3C//DTD SVG 1.1//EN"
 "http://www.w3.org/Graphics/SVG/1.1/DTD/svg11.dtd">
<!-- Generated by graphviz version 2.38.0 (20140413.2041)
 -->
<!-- Title: systemd Pages: 1 -->
<svg width="608pt" height="116pt"
 viewBox="0.00 0.00 607.53 116.00" xmlns="http://www.w3.org/2000/svg" xmlns:xlink="http://www.w3.org/1999/xlink">
<g id="graph0" class="graph" transform="scale(1 1) rotate(0) translate(4 112)">
<title>systemd</title>
<polygon fill="white" stroke="none" points="-4,4 -4,-112 603.531,-112 603.531,4 -4,4"/>
<!-- systemd&#45;update&#45;utmp&#45;runlevel.service -->
<g id="node1" class="node"><title>systemd&#45;update&#45;utmp&#45;runlevel.service</title>
<ellipse fill="none" stroke="black" cx="146.887" cy="-90" rx="146.774" ry="18"/>
<text text-anchor="middle" x="146.887" y="-86.3" font-family="Times,serif" font-size="14.00">systemd&#45;update&#45;utmp&#45;runlevel.service</text>
</g>
<!-- rescue.target -->
<g id="node2" class="node"><title>rescue.target</title>
<ellipse fill="none" stroke="black" cx="380.887" cy="-18" rx="55.7903" ry="18"/>
<text text-anchor="middle" x="380.887" y="-14.3" font-family="Times,serif" font-size="14.00">rescue.target</text>
</g>
<!-- systemd&#45;update&#45;utmp&#45;runlevel.service&#45;&gt;rescue.target -->
<g id="edge1" class="edge"><title>systemd&#45;update&#45;utmp&#45;runlevel.service&#45;&gt;rescue.target</title>
<path fill="none" stroke="green" d="M199.693,-73.2034C239.166,-61.3953 292.757,-45.3636 331.406,-33.8021"/>
<polygon fill="green" stroke="green" points="332.811,-37.0351 341.388,-30.8159 330.804,-30.3288 332.811,-37.0351"/>
</g>
<!-- multi&#45;user.target -->
<g id="node3" class="node"><title>multi&#45;user.target</title>
<ellipse fill="none" stroke="black" cx="380.887" cy="-90" rx="69.5877" ry="18"/>
<text text-anchor="middle" x="380.887" y="-86.3" font-family="Times,serif" font-size="14.00">multi&#45;user.target</text>
</g>
<!-- multi&#45;user.target&#45;&gt;rescue.target -->
<g id="edge2" class="edge"><title>multi&#45;user.target&#45;&gt;rescue.target</title>
<path fill="none" stroke="green" d="M375.009,-72.055C374.191,-64.3456 373.948,-55.0269 374.282,-46.3642"/>
<polygon fill="green" stroke="green" points="377.781,-46.4915 374.974,-36.2753 370.798,-46.0122 377.781,-46.4915"/>
</g>
<!-- multi&#45;user.target&#45;&gt;rescue.target -->
<g id="edge3" class="edge"><title>multi&#45;user.target&#45;&gt;rescue.target</title>
<path fill="none" stroke="red" d="M386.765,-72.055C387.583,-64.3456 387.826,-55.0269 387.492,-46.3642"/>
<polygon fill="red" stroke="red" points="390.976,-46.0122 386.8,-36.2753 383.993,-46.4915 390.976,-46.0122"/>
</g>
<!-- graphical.target -->
<g id="node4" class="node"><title>graphical.target</title>
<ellipse fill="none" stroke="black" cx="533.887" cy="-90" rx="65.7887" ry="18"/>
<text text-anchor="middle" x="533.887" y="-86.3" font-family="Times,serif" font-size="14.00">graphical.target</text>
</g>
<!-- graphical.target&#45;&gt;rescue.target -->
<g id="edge4" class="edge"><title>graphical.target&#45;&gt;rescue.target</title>
<path fill="none" stroke="green" d="M497.376,-74.8345C473.018,-64.3246 441.247,-49.874 416.98,-38.3072"/>
<polygon fill="green" stroke="green" points="418.277,-35.0472 407.748,-33.8693 415.244,-41.3562 418.277,-35.0472"/>
</g>
<!-- graphical.target&#45;&gt;rescue.target -->
<g id="edge5" class="edge"><title>graphical.target&#45;&gt;rescue.target</title>
<path fill="none" stroke="red" d="M506.01,-73.6382C483.28,-62.6342 450.934,-47.8011 424.768,-36.3667"/>
<polygon fill="red" stroke="red" points="426.004,-33.0878 415.437,-32.3212 423.219,-39.5102 426.004,-33.0878"/>
</g>
</g>
</svg>
